<svg id="圖層_1" data-name="圖層 1" xmlns="http://www.w3.org/2000/svg" xmlns:xlink="http://www.w3.org/1999/xlink" viewBox="0 0 380.84 460.37"><defs><style>.cls-1{fill:url(#未命名漸層_10);}.cls-2{opacity:0;}.cls-3{fill:#fff;}</style><linearGradient id="未命名漸層_10" x1="675" y1="822.89" x2="675" y2="362.52" gradientUnits="userSpaceOnUse"><stop offset="0" stop-color="#eb5f5f"/><stop offset="0.34" stop-color="#ea4846"/><stop offset="1" stop-color="#e71f19"/></linearGradient></defs><title>heart</title><path class="cls-1" d="M851.7,517,793.93,617l-117.23,203c-.55,1-1.12,1.9-1.7,2.84-.58-.94-1.15-1.88-1.7-2.84L556.07,617,498.3,517C470,467.89,486.94,404.57,536,376.24a102.13,102.13,0,0,1,51.2-13.72A103.3,103.3,0,0,1,675,411.11a103.3,103.3,0,0,1,87.8-48.59A102.13,102.13,0,0,1,814,376.24C863.06,404.57,880,467.89,851.7,517Z" transform="translate(-484.58 -362.52)"/><g class="cls-2"><path class="cls-3" d="M851.7,517,793.93,617l-117.23,203c-.55,1-1.12,1.9-1.7,2.84-.58-.94-1.15-1.88-1.7-2.84L556.07,617,498.3,517C470,467.89,486.94,404.57,536,376.24a102.13,102.13,0,0,1,51.2-13.72A103.3,103.3,0,0,1,675,411.11a103.3,103.3,0,0,1,87.8-48.59A102.13,102.13,0,0,1,814,376.24C863.06,404.57,880,467.89,851.7,517Z" transform="translate(-484.58 -362.52)"/></g></svg>